<svg width="34" height="14" viewBox="0 0 34 14" fill="none" xmlns="http://www.w3.org/2000/svg">
<path d="M33.1365 5.86348C32.9618 6.22879 32.8714 6.63138 32.8714 7.0386C32.8714 7.44579 32.9618 7.84836 33.1365 8.21365C33.4816 8.94162 33.5851 9.77596 33.4277 10.5778L33.4277 10.5778L33.4263 10.5851C33.3033 11.2655 32.9954 11.8878 32.5456 12.3756C32.0962 12.8629 31.5258 13.1937 30.9081 13.3319L30.9081 13.3318L30.9009 13.3336C30.4087 13.4514 29.8982 13.4471 29.4077 13.3209C28.9172 13.1946 28.4576 12.9491 28.0653 12.6008L28.0654 12.6007L28.0565 12.5931C26.8458 11.5678 25.333 11.0206 23.7778 11.0529H10.2222C8.66696 11.0206 7.15416 11.5678 5.94355 12.5931L5.94346 12.593L5.93467 12.6008C5.54239 12.9491 5.08284 13.1946 4.59227 13.3209C4.10183 13.4471 3.59127 13.4514 3.09912 13.3336L3.09914 13.3335L3.09185 13.3319C2.47421 13.1937 1.90384 12.8629 1.45438 12.3756C1.0046 11.8878 0.69666 11.2655 0.573674 10.5851L0.573729 10.5851L0.572285 10.5778C0.414882 9.77593 0.518407 8.94157 0.863545 8.21358C1.03826 7.84831 1.12863 7.44576 1.12863 7.0386C1.12863 6.63111 1.03811 6.22824 0.863126 5.86274L0.412146 6.07865L0.863695 5.86393C0.517693 5.13629 0.414044 4.30166 0.572197 3.49986L0.572262 3.49987L0.573705 3.49187C0.696329 2.81215 1.00414 2.19046 1.45385 1.70369C1.90324 1.21726 2.47351 0.887762 3.09073 0.751161L3.09075 0.751233L3.09912 0.749228C3.59127 0.631381 4.10183 0.635705 4.59227 0.761929C5.08284 0.888188 5.54239 1.13365 5.93467 1.48203L5.93457 1.48214L5.94394 1.49007C7.15509 2.51362 8.66795 3.05869 10.2226 3.02431H23.7774C25.332 3.05869 26.8449 2.51362 28.0561 1.49007L28.0562 1.49018L28.0653 1.48203C28.4576 1.13365 28.9172 0.888188 29.4077 0.761929C29.8982 0.635705 30.4087 0.631381 30.9009 0.749228L30.9009 0.7493L30.9093 0.751161C31.5265 0.887762 32.0968 1.21726 32.5462 1.70369C32.9959 2.19046 33.3037 2.81215 33.4263 3.49187L33.4262 3.49188L33.4278 3.49986C33.5859 4.3015 33.4823 5.13594 33.1365 5.86348ZM33.1365 5.86348C33.1366 5.86324 33.1368 5.86298 33.1369 5.86274L33.5879 6.07865L33.1363 5.86393C33.1364 5.86378 33.1364 5.86363 33.1365 5.86348Z" stroke="#DDCA69"/>
</svg>
