<svg width="34" height="14" viewBox="0 0 34 14" fill="none" xmlns="http://www.w3.org/2000/svg">
<path d="M33.5879 6.07865C33.9805 5.25301 34.097 4.30908 33.9184 3.4031C33.7793 2.63258 33.4297 1.92321 32.9134 1.36439C32.3971 0.805581 31.7374 0.42234 31.0173 0.262974C30.4458 0.126125 29.8525 0.131167 29.2831 0.277709C28.7137 0.424252 28.1835 0.708379 27.7333 1.10818C26.6112 2.05647 25.2142 2.5573 23.7831 2.52431H10.2169C8.78582 2.5573 7.38878 2.05647 6.26668 1.10818C5.81651 0.708379 5.28628 0.424252 4.71689 0.277709C4.14751 0.131167 3.55419 0.126125 2.98269 0.262974C2.26261 0.42234 1.60285 0.805581 1.08659 1.36439C0.570324 1.92321 0.220653 2.63258 0.0816483 3.4031C-0.0970523 4.30908 0.0195463 5.25301 0.412146 6.07865C0.554439 6.37586 0.628633 6.70485 0.628633 7.0386C0.628633 7.37235 0.554439 7.70133 0.412146 7.99855C0.0203593 8.82446 -0.0962019 9.76808 0.0816483 10.6741C0.221014 11.445 0.5707 12.1549 1.08682 12.7145C1.60293 13.2742 2.26249 13.6587 2.98269 13.8198C3.55419 13.9567 4.14751 13.9516 4.71689 13.8051C5.28628 13.6585 5.81651 13.3744 6.26668 12.9746C7.38828 12.0247 8.78524 11.522 10.2169 11.5529H23.7831C25.2148 11.522 26.6117 12.0247 27.7333 12.9746C28.1835 13.3744 28.7137 13.6585 29.2831 13.8051C29.8525 13.9516 30.4458 13.9567 31.0173 13.8198C31.7375 13.6587 32.3971 13.2742 32.9132 12.7145C33.4293 12.1549 33.779 11.445 33.9184 10.6741C34.0962 9.76808 33.9796 8.82446 33.5879 7.99855C33.4456 7.70133 33.3714 7.37235 33.3714 7.0386C33.3714 6.70485 33.4456 6.37586 33.5879 6.07865Z" fill="#DDCA69"/>
</svg>
