<svg width="50" height="47" viewBox="0 0 50 47" fill="none" xmlns="http://www.w3.org/2000/svg">
<path d="M25.8321 24.9261C25.4839 29.1109 28.974 30.0797 31.8022 33.9805C36.0112 39.5772 40.1781 38.5823 41.3611 35.065C42.4874 31.6845 39.3801 28.7902 39.6764 25.0649C39.9727 21.3397 43.6974 18.3972 43.1737 14.9726C42.65 11.5481 38.6288 10.5191 33.4123 16.0489C29.8778 19.8721 26.2988 20.7906 25.8321 24.9261Z" fill="#FFE55E"/>
<path d="M19.7859 13.6831C22.4141 16.0576 25.8325 16.1949 27.3911 14.1164C28.9496 12.0379 28.0702 8.46561 25.3853 6.22784C22.7571 3.85332 19.3387 3.71605 17.7801 5.79455C16.2784 7.7363 17.1578 11.3086 19.7859 13.6831Z" fill="#FFAA00"/>
<path d="M11.8605 24.0122C15.4643 24.7075 18.9766 23.2802 19.7002 20.5342C20.3671 17.9249 18.0279 15.1894 14.3056 14.4449C10.7019 13.7496 7.18961 15.1769 6.46596 17.9229C5.79911 20.5321 8.2568 23.3169 11.8605 24.0122Z" fill="#FFAA00"/>
<path d="M12.466 36.6555C16.0697 37.3508 19.582 35.9235 20.3057 33.1775C20.9725 30.5683 18.6334 27.8327 14.9111 27.0882C11.3074 26.3929 7.79508 27.8202 7.07142 30.5662C6.40458 33.1755 8.86227 35.9602 12.466 36.6555Z" fill="#FFAA00"/>
</svg>
