<svg width="108" height="23" viewBox="0 0 108 23" fill="none" xmlns="http://www.w3.org/2000/svg">
<path d="M6.125 10.6094V5.60938C7.16667 5.53646 7.88542 5.5 8.28125 5.5C9.41667 5.46875 10.4271 5.50521 11.3125 5.60938C11.3438 5.91146 11.3594 6.125 11.3594 6.25C11.4531 7.30208 11.5 7.94271 11.5 8.17188C11.5 8.98438 11.4427 9.79688 11.3281 10.6094H6.125ZM15.0469 1.4375L14.8281 1.375C14.849 1.375 14.651 1.34375 14.2344 1.28125C13.724 1.20833 13.2135 1.14062 12.7031 1.07812C11.026 0.890625 9.52604 0.807292 8.20312 0.828125C6.88021 0.848958 5.25521 0.963542 3.32812 1.17188C2.73438 1.24479 2.14062 1.31771 1.54688 1.39062C1.05729 1.46354 0.817708 1.5 0.828125 1.5L0.421875 1.5625L0 1.64062L0.671875 2.15625C1.06771 2.46875 1.35417 2.77604 1.53125 3.07812C1.75 3.45312 1.85938 3.88021 1.85938 4.35938V23H6.125V14.6094H15.0781L15.1094 14.4219L15.125 14.3125C15.1771 14.0938 15.2396 13.75 15.3125 13.2812C15.6042 11.5625 15.75 9.9375 15.75 8.40625C15.75 5.67708 15.5365 3.43229 15.1094 1.67188L15.0469 1.4375ZM33.8906 22.125C33.9115 22.125 33.6979 22.1719 33.25 22.2656C32.7083 22.3802 32.151 22.4792 31.5781 22.5625C29.724 22.8542 27.9792 23 26.3438 23C23.5729 23 21.349 22.7708 19.6719 22.3125L19.4219 22.2188V3.4375C19.4219 2.39583 18.9792 1.53646 18.0938 0.859375H23.6875L23.6562 18.2656C24.1146 18.3385 25.0104 18.375 26.3438 18.375C27.6979 18.375 28.5781 18.3385 28.9844 18.2656V0.859375L33.3125 0.828125V19.4375C33.3125 20.3438 33.526 21.0365 33.9531 21.5156C34.1719 21.7448 34.3906 21.8906 34.6094 21.9531L33.8906 22.125ZM43.0938 10.6094V5.60938C44.1354 5.53646 44.8542 5.5 45.25 5.5C46.3854 5.46875 47.3958 5.50521 48.2812 5.60938C48.3125 5.91146 48.3281 6.125 48.3281 6.25C48.4219 7.30208 48.4688 7.94271 48.4688 8.17188C48.4688 8.98438 48.4115 9.79688 48.2969 10.6094H43.0938ZM52.0156 1.4375L51.7969 1.375C51.8177 1.375 51.6198 1.34375 51.2031 1.28125C50.6927 1.20833 50.1823 1.14062 49.6719 1.07812C47.9948 0.890625 46.4948 0.807292 45.1719 0.828125C43.849 0.848958 42.224 0.963542 40.2969 1.17188C39.7031 1.24479 39.1094 1.31771 38.5156 1.39062C38.026 1.46354 37.7865 1.5 37.7969 1.5L37.3906 1.5625L36.9688 1.64062L37.6406 2.15625C38.0365 2.46875 38.3229 2.77604 38.5 3.07812C38.7188 3.45312 38.8281 3.88021 38.8281 4.35938V23H43.0938V14.6094H52.0469L52.0781 14.4219L52.0938 14.3125C52.1458 14.0938 52.2083 13.75 52.2812 13.2812C52.5729 11.5625 52.7188 9.9375 52.7188 8.40625C52.7188 5.67708 52.5052 3.43229 52.0781 1.67188L52.0156 1.4375Z" fill="#FFAA00"/>
<path d="M69.4219 3.1875C69.401 2.73958 69.5156 2.32812 69.7656 1.95312C69.8281 1.85938 69.9948 1.66667 70.2656 1.375L70.8438 0.734375H65.2344V10.0938H60.8125V0.734375H55.0625L55.8281 1.40625C56.3906 1.89583 56.6615 2.49479 56.6406 3.20312V20.5312C56.6615 20.9792 56.5625 21.3802 56.3438 21.7344C56.3021 21.7865 56.1823 21.9219 55.9844 22.1406L55.2031 23H60.8125V14.6094H65.2344V23H70.9844L70.2656 22.3281C69.724 21.8385 69.4427 21.2344 69.4219 20.5156V3.1875ZM89.1406 22.125C89.1615 22.125 88.9479 22.1719 88.5 22.2656C87.9583 22.3802 87.401 22.4792 86.8281 22.5625C84.974 22.8542 83.2292 23 81.5938 23C78.8229 23 76.599 22.7708 74.9219 22.3125L74.6719 22.2188V3.4375C74.6719 2.39583 74.2292 1.53646 73.3438 0.859375H78.9375L78.9062 18.2656C79.3646 18.3385 80.2604 18.375 81.5938 18.375C82.9479 18.375 83.8281 18.3385 84.2344 18.2656V0.859375L88.5625 0.828125V19.4375C88.5625 20.3438 88.776 21.0365 89.2031 21.5156C89.4219 21.7448 89.6406 21.8906 89.8594 21.9531L89.1406 22.125ZM100.25 18.6562C99.375 18.6562 98.6146 18.6146 97.9688 18.5312V13.9688H102.828C103.089 14.5208 103.219 15.3021 103.219 16.3125C103.219 17.3333 103.083 18.0469 102.812 18.4531C102.073 18.5885 101.219 18.6562 100.25 18.6562ZM102.875 7.4375C102.875 8.4375 102.75 9.22396 102.5 9.79688H97.9688V5.25C98.8333 5.14583 99.5417 5.08854 100.094 5.07812H100.25C100.844 5.07812 101.583 5.14583 102.469 5.28125C102.74 5.69792 102.875 6.41667 102.875 7.4375ZM107.594 7.0625C107.594 5.30208 107.234 3.45833 106.516 1.53125L106.375 1.3125L106.156 1.28125C104.146 0.916667 102.25 0.734375 100.469 0.734375H100.188C98.3438 0.755208 95.9531 0.96875 93.0156 1.375L92.2344 1.48438L92.8125 2.03125C93.4688 2.64583 93.7969 3.35938 93.7969 4.17188V19.5469C93.7969 20.401 93.474 21.1146 92.8281 21.6875L92.2188 22.2188L93.0156 22.3438C95.4115 22.75 97.8021 22.9688 100.188 23H100.453C102.307 23 104.297 22.8229 106.422 22.4688L106.656 22.4219L106.719 22.2031C107.427 19.8177 107.781 17.7031 107.781 15.8594C107.781 14.7135 107.469 13.375 106.844 11.8438C107.344 10.2604 107.594 8.66667 107.594 7.0625Z" fill="#FFE55E"/>
</svg>
